<?xml version="1.0" standalone="no"?><!DOCTYPE svg PUBLIC "-//W3C//DTD SVG 1.1//EN" "http://www.w3.org/Graphics/SVG/1.1/DTD/svg11.dtd"><svg t="1585621016158" class="icon" viewBox="0 0 1024 1024" version="1.1" xmlns="http://www.w3.org/2000/svg" p-id="4744" width="30" height="30" xmlns:xlink="http://www.w3.org/1999/xlink"><defs><style type="text/css"></style></defs><path d="M512 512m-512 0a512 512 0 1 0 1024 0 512 512 0 1 0-1024 0Z" fill="#E9F0FE" p-id="4745"></path><path d="M616.789333 238.933333a133.495467 133.495467 0 0 1 41.984 7.816534 118.9888 118.9888 0 0 1 72.567467 113.117866 122.436267 122.436267 0 0 1-34.4064 85.845334l-213.879467 222.3104a78.916267 78.916267 0 0 1-22.9376 15.598933 55.808 55.808 0 0 1-26.7264 3.8912 63.863467 63.863467 0 0 1-26.7264-3.8912 38.5024 38.5024 0 0 1-19.114666-15.598933 80.861867 80.861867 0 0 1-15.2576-23.415467 67.959467 67.959467 0 0 1-3.7888-27.306667 75.093333 75.093333 0 0 1 19.114666-50.722133l194.833067-206.7456a22.664533 22.664533 0 0 1 34.4064 0 29.969067 29.969067 0 0 1 7.645867 15.598933c-3.7888 7.816533-3.7888 11.707733-7.645867 19.524267l-198.690133 202.786133a30.208 30.208 0 0 0-7.645867 19.524267 24.917333 24.917333 0 0 0 22.9376 23.415467 19.524267 19.524267 0 0 0 15.2576-7.816534l213.879467-222.3104a65.3312 65.3312 0 0 0 19.080533-50.722133 83.387733 83.387733 0 0 0-19.080533-50.722133 54.135467 54.135467 0 0 0-45.841067-23.415467 61.098667 61.098667 0 0 0-49.664 23.415467l-213.8112 222.3104a139.502933 139.502933 0 0 0-26.7264 39.0144 121.309867 121.309867 0 0 0 0 89.7024 140.765867 140.765867 0 0 0 26.7264 39.0144 108.817067 108.817067 0 0 0 80.213333 35.191466 102.946133 102.946133 0 0 0 80.1792-35.1232l217.736534-218.453333c3.7888-7.816533 7.645867-7.816533 15.2576-7.816533a19.524267 19.524267 0 0 1 15.2576 7.816533 19.694933 19.694933 0 0 1 0 31.163733l-213.879467 222.378667a272.452267 272.452267 0 0 1-53.4528 39.0144 165.376 165.376 0 0 1-122.231467 0 126.907733 126.907733 0 0 1-53.4528-39.0144 164.795733 164.795733 0 0 1-34.4064-54.613333 180.906667 180.906667 0 0 1-11.400533-62.429867 201.386667 201.386667 0 0 1 11.4688-66.286933 164.215467 164.215467 0 0 1 34.4064-54.613334l213.879467-222.3104a116.770133 116.770133 0 0 1 83.933866-35.1232z m0 0" fill="#9EBBFA" p-id="4746"></path></svg>