<?xml version="1.0" standalone="no"?><!DOCTYPE svg PUBLIC "-//W3C//DTD SVG 1.1//EN" "http://www.w3.org/Graphics/SVG/1.1/DTD/svg11.dtd"><svg t="1585622176498" class="icon" viewBox="0 0 1024 1024" version="1.1" xmlns="http://www.w3.org/2000/svg" p-id="5379" xmlns:xlink="http://www.w3.org/1999/xlink" width="30" height="30"><defs><style type="text/css"></style></defs><path d="M512 512m-512 0a512 512 0 1 0 1024 0 512 512 0 1 0-1024 0Z" fill="#E9F0FE" p-id="5380"></path><path d="M536.462222 752.611556a22.215111 22.215111 0 0 1-29.866666 13.454222l-264.931556-120.149334a25.827556 25.827556 0 0 1-12.316444-32.597333 22.215111 22.215111 0 0 1 29.866666-13.454222l264.874667 120.206222a25.6 25.6 0 0 1 12.373333 32.540445z" fill="#9EBBFA" p-id="5381"></path><path d="M497.777778 750.563556a22.328889 22.328889 0 0 0 29.980444 13.454222l254.520889-114.289778a25.799111 25.799111 0 0 0 12.373333-32.597333 22.328889 22.328889 0 0 0-29.980444-13.454223l-254.520889 114.289778a25.799111 25.799111 0 0 0-12.373333 32.597334z m39.822222-105.500445a22.328889 22.328889 0 0 1-29.980444 13.454222l-265.927112-120.149333a25.799111 25.799111 0 0 1-12.373333-32.597333 22.328889 22.328889 0 0 1 29.980445-13.454223l265.870222 120.206223a25.6 25.6 0 0 1 12.430222 32.654222z" fill="#9EBBFA" p-id="5382"></path><path d="M495.473778 644.949333a22.272 22.272 0 0 0 29.980444 13.568l256.796445-116.963555a26.055111 26.055111 0 0 0 12.373333-32.853334 22.272 22.272 0 0 0-29.980444-13.568l-256.881778 116.935112a26.055111 26.055111 0 0 0-12.288 32.881777z m299.576889-251.022222a24.32 24.32 0 0 0-12.828445-14.904889l-265.927111-121.116444a22.442667 22.442667 0 0 0-18.119111 0l-256.341333 116.622222a24.291556 24.291556 0 0 0-13.312 16.497778v0.455111a25.856 25.856 0 0 0 13.312 29.923555l265.870222 121.116445a21.134222 21.134222 0 0 0 17.777778 0l256.796444-116.963556a25.856 25.856 0 0 0 12.771556-31.630222z" fill="#9EBBFA" p-id="5383"></path></svg>