<?xml version="1.0" standalone="no"?><!DOCTYPE svg PUBLIC "-//W3C//DTD SVG 1.1//EN" "http://www.w3.org/Graphics/SVG/1.1/DTD/svg11.dtd"><svg t="1585622173050" class="icon" viewBox="0 0 1024 1024" version="1.1" xmlns="http://www.w3.org/2000/svg" p-id="5259" xmlns:xlink="http://www.w3.org/1999/xlink" width="30" height="30"><defs><style type="text/css"></style></defs><path d="M512 512m-512 0a512 512 0 1 0 1024 0 512 512 0 1 0-1024 0Z" fill="#E9F0FE" p-id="5260"></path><path d="M264.846222 668.672l199.111111 112.440889a18.005333 18.005333 0 0 0 27.164445-14.791111v-218.709334a17.066667 17.066667 0 0 0-8.732445-14.734222l-199.111111-114.119111a18.005333 18.005333 0 0 0-27.249778 14.734222v220.387556a17.066667 17.066667 0 0 0 8.846223 14.791111z m295.452445 113.123556l199.111111-114.119112a17.066667 17.066667 0 0 0 8.732444-14.734222v-218.709333a18.005333 18.005333 0 0 0-27.164444-14.791111l-199.111111 112.440889a17.066667 17.066667 0 0 0-8.817778 14.791111v220.387555a18.005333 18.005333 0 0 0 27.249778 14.734223z m-56.888889-563.996445l-226.872889 115.114667a16.810667 16.810667 0 0 0 0 29.525333l226.872889 128a18.744889 18.744889 0 0 0 18.432 0l225.365333-128a16.810667 16.810667 0 0 0 0-29.525333l-225.365333-115.114667a18.744889 18.744889 0 0 0-18.432 0z" fill="#9EBBFA" p-id="5261"></path></svg>