<?xml version="1.0" standalone="no"?><!DOCTYPE svg PUBLIC "-//W3C//DTD SVG 1.1//EN" "http://www.w3.org/Graphics/SVG/1.1/DTD/svg11.dtd"><svg t="1588914438278" class="icon" viewBox="0 0 1024 1024" version="1.1" xmlns="http://www.w3.org/2000/svg" p-id="5478" width="36" height="36" xmlns:xlink="http://www.w3.org/1999/xlink"><defs><style type="text/css"></style></defs><path d="M512 512H0A512 512 0 1 0 512 0 512 512 0 0 0 0 512z" fill="#E9F0FE" p-id="5479"></path><path d="M675.498667 351.744h64.028444L620.487111 227.555556v69.176888a55.011556 55.011556 0 0 0 55.011556 55.011556z" fill="#9EBBFA" p-id="5480"></path><path d="M587.861333 321.649778V227.555556h-258.360889A44.544 44.544 0 0 0 284.444444 271.559111v480.881778A44.544 44.544 0 0 0 329.500444 796.444444h364.999112A44.544 44.544 0 0 0 739.555556 752.440889V387.555556h-84.195556a66.702222 66.702222 0 0 1-67.498667-65.905778z m-215.808 54.442666h190.008889a26.680889 26.680889 0 1 1 0 53.333334h-190.008889a26.680889 26.680889 0 1 1 0-53.333334z m276.48 280.007112h-276.48a26.680889 26.680889 0 1 1 0-53.333334h276.48a26.680889 26.680889 0 1 1 0 53.333334z m27.306667-142.222223a26.993778 26.993778 0 0 1-27.306667 26.680889h-276.48a26.680889 26.680889 0 1 1 0-53.333333h276.48a26.993778 26.993778 0 0 1 27.306667 26.680889z" fill="#9EBBFA" p-id="5481"></path></svg>