<?xml version="1.0" standalone="no"?><!DOCTYPE svg PUBLIC "-//W3C//DTD SVG 1.1//EN" "http://www.w3.org/Graphics/SVG/1.1/DTD/svg11.dtd"><svg t="1585622155920" class="icon" viewBox="0 0 1024 1024" version="1.1" xmlns="http://www.w3.org/2000/svg" p-id="4894" xmlns:xlink="http://www.w3.org/1999/xlink" width="30" height="30"><defs><style type="text/css"></style></defs><path d="M85.333333 0h853.333334c18.773333 0 34.133333 15.36 34.133333 34.133333v955.733334c0 18.773333-15.36 34.133333-34.133333 34.133333H85.333333c-18.773333 0-34.133333-15.36-34.133333-34.133333V34.133333C51.2 15.36 66.56 0 85.333333 0z" fill="#FFFFFF" p-id="4895"></path><path d="M938.666667 1024H85.333333c-18.773333 0-34.133333-15.36-34.133333-34.133333V34.133333C51.2 15.36 66.56 0 85.333333 0h853.333334c18.773333 0 34.133333 15.36 34.133333 34.133333v955.733334c0 18.773333-15.36 34.133333-34.133333 34.133333zM85.333333 17.066667c-10.24 0-17.066667 6.826667-17.066666 17.066666v955.733334c0 10.24 6.826667 17.066667 17.066666 17.066666h853.333334c10.24 0 17.066667-6.826667 17.066666-17.066666V34.133333c0-10.24-6.826667-17.066667-17.066666-17.066666H85.333333z" fill="#DDE4EB" p-id="4896"></path><path d="M380.586667 467.626667h141.653333v-3.413334 3.413334c8.533333-1.706667 13.653333-6.826667 15.36-15.36 1.706667-5.12 0-10.24-3.413333-13.653334s-6.826667-6.826667-13.653334-8.533333h-143.36c-8.533333 1.706667-13.653333 6.826667-15.36 15.36-1.706667 5.12 0 10.24 3.413334 13.653333 5.12 5.12 8.533333 8.533333 15.36 8.533334zM363.52 527.36c-1.706667 10.24 5.12 20.48 15.36 22.186667h245.76V546.133333v3.413334c8.533333-1.706667 13.653333-6.826667 15.36-15.36 1.706667-5.12 0-10.24-3.413333-15.36-3.413333-5.12-6.826667-6.826667-13.653334-8.533334H377.173333c-5.12 1.706667-11.946667 8.533333-13.653333 17.066667zM624.64 592.213333H378.88c-8.533333 1.706667-13.653333 6.826667-15.36 15.36-1.706667 5.12 0 10.24 3.413333 15.36s6.826667 6.826667 13.653334 8.533334h245.76v-3.413334 3.413334c8.533333-1.706667 13.653333-6.826667 15.36-15.36 1.706667-10.24-5.12-20.48-17.066667-23.893334z" fill="#9EBBFA" p-id="4897"></path><path d="M628.053333 254.293333l-276.48-1.706666c-37.546667 0-66.56 30.72-66.56 68.266666v384c0 37.546667 29.013333 66.56 66.56 68.266667H665.6c37.546667 0 66.56-30.72 66.56-66.56l3.413333-334.506667v-1.706666l-107.52-116.053334z m-8.533333 126.293334c-6.826667 0-11.946667-5.12-11.946667-11.946667v-71.68l83.626667 83.626667h-71.68z m-15.36 39.253333h90.453333v285.013333c0 6.826667-3.413333 15.36-8.533333 20.48-5.12 5.12-11.946667 8.533333-20.48 8.533334H351.573333c-6.826667 0-15.36-3.413333-20.48-8.533334-5.12-5.12-8.533333-11.946667-8.533333-20.48V320.853333c0-6.826667 3.413333-15.36 8.533333-20.48s11.946667-8.533333 20.48-8.533333h216.746667v92.16c1.706667 18.773333 17.066667 35.84 35.84 35.84z" fill="#9EBBFA" p-id="4898"></path></svg>