<svg t="1588914313965" class="icon" viewBox="0 0 1024 1024" version="1.1" xmlns="http://www.w3.org/2000/svg" p-id="5268" width="36" height="36"><path d="M0 512a512 512 0 1 0 1024 0A512 512 0 1 0 0 512z" fill="#E9F0FE" p-id="5269"></path><path d="M434.893 494.933h-103.97a58.027 58.027 0 0 1-57.856-58.3V331.538a58.027 58.027 0 0 1 57.856-58.47h103.97a58.027 58.027 0 0 1 57.856 58.47v105.097a58.027 58.027 0 0 1-57.856 58.3z m0 256h-103.97a58.027 58.027 0 0 1-57.856-58.47V587.4a58.027 58.027 0 0 1 57.856-58.334h103.97a58.027 58.027 0 0 1 57.856 58.334v105.062a58.027 58.027 0 0 1-57.856 58.47z m258.184-256h-103.8a58.027 58.027 0 0 1-57.855-58.3V331.538a58.027 58.027 0 0 1 57.856-58.47h103.8a58.027 58.027 0 0 1 57.855 58.47v105.097a58.027 58.027 0 0 1-57.856 58.3z m38.571 94.481H550.741a19.49 19.49 0 0 1 0-38.98h180.907a19.49 19.49 0 0 1 0 38.98z m0 138.616H550.741a19.49 19.49 0 0 1 0-38.98h180.907a19.49 19.49 0 0 1 0 38.98z" fill="#9EBBFA" p-id="5270"></path></svg>