<?xml version="1.0" standalone="no"?><!DOCTYPE svg PUBLIC "-//W3C//DTD SVG 1.1//EN" "http://www.w3.org/Graphics/SVG/1.1/DTD/svg11.dtd"><svg t="1585622169903" class="icon" viewBox="0 0 1024 1024" version="1.1" xmlns="http://www.w3.org/2000/svg" p-id="5139" xmlns:xlink="http://www.w3.org/1999/xlink" width="30" height="30"><defs><style type="text/css"></style></defs><path d="M512 512m-512 0a512 512 0 1 0 1024 0 512 512 0 1 0-1024 0Z" fill="#E9F0FE" p-id="5140"></path><path d="M409.656889 561.550222a95.260444 95.260444 0 0 0 19.285333-8.078222c11.008-6.513778 19.541333-19.911111-1.024-36.437333-68.010667-91.989333-43.264-153.116444-32.938666-176.099556a85.333333 85.333333 0 0 0-29.610667-5.091555h-3.584a83.598222 83.598222 0 0 0-83.768889 86.698666 117.959111 117.959111 0 0 0 46.990222 102.798222 25.998222 25.998222 0 0 1 3.043556 15.075556 20.451556 20.451556 0 0 1-4.920889 12.487111c-26.709333 20.309333-115.882667 41.443556-122.140445 85.333333a119.779556 119.779556 0 0 0-0.625777 37.859556 238.051556 238.051556 0 0 0 61.383111 19.427556 265.614222 265.614222 0 0 0 7.822222-29.326223c5.688889-26.936889 44.743111-70.741333 140.088889-104.504889z m413.383111 76.202667c-6.4-43.690667-97.991111-64.824889-125.411556-85.105778a20.679111 20.679111 0 0 1-4.920888-12.515555 26.026667 26.026667 0 0 1 2.986666-15.018667 116.963556 116.963556 0 0 0 48.355556-102.599111 86.300444 86.300444 0 0 0-85.845334-86.670222h-3.584a91.704889 91.704889 0 0 0-35.242666 6.485333c13.681778 42.894222 30.065778 121.571556-38.968889 174.250667-27.107556 37.859556 63.089778 60.103111 49.066667 54.044444 81.607111 34.474667 103.537778 60.814222 109.511111 88.177778 5.006222 22.755556 7.822222 36.693333 7.822222 36.693333a300.686222 300.686222 0 0 0 76.942222-19.911111 120.860444 120.860444 0 0 0-0.625778-37.831111z m-266.069333-83.911111a25.6 25.6 0 0 1-6.087111-15.559111 32.483556 32.483556 0 0 1 3.726222-18.659556s60.302222-30.577778 59.107555-127.516444a106.609778 106.609778 0 0 0-105.244444-107.690667h-4.465778a104.135111 104.135111 0 0 0-105.244444 107.690667 145.834667 145.834667 0 0 0 58.965333 127.573333 33.194667 33.194667 0 0 1 7.281778 21.674667c0 3.185778-5.688889 9.642667-9.671111 12.515555-33.564444 25.230222-154.624 50.602667-162.588445 104.931556-6.115556 23.068444-42.012444 59.733333 77.397334 74.268444a1166.222222 1166.222222 0 0 0 138.012444 6.485334c277.134222 0 219.761778-50.403556 212.081778-79.900445-7.793778-54.272-129.792-80.583111-163.384889-105.813333z" fill="#9EBBFA" p-id="5141"></path></svg>